<svg width="20" height="20" viewBox="0 0 20 20" fill="none" xmlns="http://www.w3.org/2000/svg">
<path d="M16.8844 9.825H9.81972V11.8725H14.8351C14.5809 14.73 12.1387 15.9525 9.82743 15.9525C6.87673 15.9525 4.28814 13.6875 4.28814 10.5C4.28814 7.425 6.75347 5.0475 9.83513 5.0475C12.2157 5.0475 13.6102 6.525 13.6102 6.525L15.074 5.04C15.074 5.04 13.1941 3 9.75809 3C5.38213 3 2 6.6 2 10.5C2 14.2875 5.18182 18 9.87365 18C13.9954 18 17 15.2475 17 11.1825C17 10.32 16.8844 9.825 16.8844 9.825Z" fill="white"/>
</svg>
