<svg xmlns="http://www.w3.org/2000/svg" viewBox="0 0 18 18" fill="#fff"><path d="M12.923 9.032a9.15 9.15 0 0 0-1.058-.425c1.163-.873 1.917-2.263 1.917-3.826A4.79 4.79 0 0 0 9.001 0 4.79 4.79 0 0 0 4.22 4.781a4.78 4.78 0 0 0 1.92 3.83 9.08 9.08 0 0 0-2.946 1.62C1.586 11.552.468 13.397.046 15.424c-.132.635.026 1.287.435 1.8A2.12 2.12 0 0 0 2.135 18h8.66c.388 0 .703-.315.703-.703s-.315-.703-.703-.703h-8.66c-.3 0-.48-.168-.562-.267a.74.74 0 0 1-.15-.616A7.77 7.77 0 0 1 8.814 9.56L9 9.562l.188-.004a7.66 7.66 0 0 1 3.13.743c.35.167.77.018.937-.333s.018-.77-.333-.937zm-3.75-.88L9 8.15l-.17.002a3.38 3.38 0 0 1-3.205-3.371A3.38 3.38 0 0 1 9 1.406a3.38 3.38 0 0 1 3.375 3.375 3.38 3.38 0 0 1-3.203 3.371zm8.124 5.805h-1.934v-1.934c0-.388-.315-.703-.703-.703s-.703.315-.703.703v1.934h-1.934c-.388 0-.703.315-.703.703s.315.703.703.703h1.934v1.934c0 .388.315.703.703.703s.703-.315.703-.703v-1.934h1.934c.388 0 .703-.315.703-.703s-.315-.703-.703-.703z"/></svg>