<svg width="20" height="20" viewBox="0 0 20 20" fill="none" xmlns="http://www.w3.org/2000/svg">
<g clip-path="url(#clip0)">
<path d="M9.21875 13.9062V10.7812H6.05469C5.62317 10.7812 5.27344 10.4315 5.27344 10C5.27344 9.56848 5.62317 9.21875 6.05469 9.21875H9.21875V6.05469C9.21875 5.62317 9.56848 5.27344 10 5.27344C10.4315 5.27344 10.7812 5.62317 10.7812 6.05469V9.21875H13.9062C14.3378 9.21875 14.6875 9.56848 14.6875 10C14.6875 10.4315 14.3378 10.7812 13.9062 10.7812H10.7812V13.9062C10.7812 14.3378 10.4315 14.6875 10 14.6875C9.56848 14.6875 9.21875 14.3378 9.21875 13.9062ZM17.0711 2.92892C15.1823 1.04019 12.6711 0 10 0C7.32895 0 4.81766 1.04019 2.92892 2.92892C1.04019 4.81766 0 7.32895 0 10C0 12.6711 1.04019 15.1823 2.92892 17.0711C4.81766 18.9598 7.32895 20 10 20C11.8286 20 13.6179 19.5016 15.1743 18.5588C15.5434 18.3353 15.6613 17.8549 15.4378 17.486C15.2141 17.1169 14.7337 16.9989 14.3648 17.2224C13.0525 18.0173 11.5431 18.4375 10 18.4375C5.3476 18.4375 1.5625 14.6524 1.5625 10C1.5625 5.3476 5.3476 1.5625 10 1.5625C14.6524 1.5625 18.4375 5.3476 18.4375 10C18.4375 11.6637 17.9428 13.2829 17.0068 14.6831C16.767 15.0417 16.8634 15.5269 17.2221 15.7668C17.5809 16.0065 18.0659 15.9102 18.3058 15.5515C19.4141 13.8936 20 11.9739 20 10C20 7.32895 18.9598 4.81766 17.0711 2.92892Z" fill="#1B76BC"/>
</g>
<defs>
<clipPath id="clip0">
<rect width="20" height="20" fill="white"/>
</clipPath>
</defs>
</svg>
