<svg xmlns="http://www.w3.org/2000/svg" fill="none" viewBox="0 0 20 20"><g clip-path="url(#A)"><path d="M9.22 13.906V10.78H6.055a.78.78 0 1 1 0-1.562H9.22V6.054a.78.78 0 1 1 1.562 0V9.22h3.125a.78.78 0 1 1 0 1.562H10.78v3.125a.78.78 0 1 1-1.562 0zM17.07 2.93C15.182 1.04 12.67 0 10 0S4.818 1.04 2.93 2.93 0 7.33 0 10s1.04 5.182 2.93 7.07S7.33 20 10 20c1.83 0 3.618-.498 5.174-1.44a.78.78 0 1 0-.809-1.336c-1.312.795-2.822 1.215-4.365 1.215A8.45 8.45 0 0 1 1.563 10 8.45 8.45 0 0 1 10 1.563 8.45 8.45 0 0 1 18.438 10c0 1.664-.495 3.283-1.43 4.683a.78.78 0 0 0 1.299.868A9.96 9.96 0 0 0 20 10c0-2.67-1.04-5.182-2.93-7.07z" fill="#1b76bc"/></g><defs><clipPath id="A"><path fill="#fff" d="M0 0h20v20H0z"/></clipPath></defs></svg>