<svg xmlns="http://www.w3.org/2000/svg" fill="none" viewBox="0 0 20 20"><g clip-path="url(#A)"><path d="M18.446 10.72l-.943-.55-2.665-4.585c-.493-.964-1.47-1.562-2.554-1.562h-.618l-.16-1.278C11.375 1.693 10.475.9 9.414.9s-1.96.794-2.092 1.847l-.16 1.278H3.125A3.13 3.13 0 0 0 0 7.149v7.227a3.13 3.13 0 0 0 3.064 3.123c.322.9 1.19 1.564 2.2 1.564S7.16 18.4 7.483 17.5h2.4a.78.78 0 1 0 0-1.562h-2.4c-.322-.91-1.19-1.562-2.21-1.562s-1.886.652-2.21 1.56c-.834-.032-1.502-.72-1.502-1.56V7.15c0-.862.7-1.562 1.563-1.562h9.16a1.3 1.3 0 0 1 1.168.722l.023.043 2.234 3.844h-3.952V7.93a.78.78 0 1 0-1.562 0v3.047a.78.78 0 0 0 .781.781l6.143-.002.54.315a1.57 1.57 0 0 1 .777 1.351v.954c0 .86-.7 1.563-1.562 1.563h-.134c-.322-.91-1.19-1.562-2.21-1.562-1.292 0-2.344 1.05-2.344 2.344s1.05 2.344 2.344 2.344c1.02 0 1.887-.653 2.21-1.562h.134A3.13 3.13 0 0 0 20 14.375v-.954c0-1.11-.595-2.144-1.554-2.7zM5.273 15.938a.78.78 0 1 1 0 1.562.78.78 0 1 1 0-1.562zm3.6-12.998c.034-.273.267-.478.542-.478s.508.206.542.48l.136 1.084H8.736l.136-1.084zm5.66 14.56a.78.78 0 1 1 0-1.563.78.78 0 1 1 0 1.563zm-9.453-5.703v-1.172H3.906a.78.78 0 1 1 0-1.562h1.172V7.892a.78.78 0 1 1 1.563 0v1.172h1.172a.78.78 0 1 1 0 1.563H6.64v1.172a.78.78 0 1 1-1.562 0z" fill="#3d3d3d"/></g><defs><clipPath id="A"><path fill="#fff" d="M0 0h20v20H0z"/></clipPath></defs></svg>