<svg xmlns="http://www.w3.org/2000/svg" xmlns:xlink="http://www.w3.org/1999/xlink" viewBox="0 0 20 20"><g fill="#3d3d3d"><use xlink:href="#B"/><use xlink:href="#B" x="-1.954" y="-2.422"/><path d="M12.204 14.964a.78.78 0 0 0-1.103.064l-1.838 2.064.864-2.37a.78.78 0 0 0-.734-1.049h-2.32c-.202 0-.303-.135-.337-.193s-.103-.212-.004-.388l2.44-4.38h2.253L10.03 11a.78.78 0 0 0 .668 1.187h2.676c.044 0 .054.014.06.027s.01.022-.017.053l-.266.316a.78.78 0 0 0 1.197 1.005l.257-.307c.416-.488.51-1.146.248-1.72s-.833-.937-1.48-.937h-1.287l1.392-2.29a.78.78 0 0 0-.668-1.187H8.71a.78.78 0 0 0-.683.401l-2.663 4.78c-.34.61-.332 1.336.023 1.94s.984.963 1.684.963h1.205L7.086 18.5c-.142.34-.117.7.072.99.206.32.58.51 1.003.51h.006c.354-.001.697-.142.94-.387l.03-.032 3.13-3.515a.78.78 0 0 0-.064-1.103z"/><use xlink:href="#B" x="-2.734"/><use xlink:href="#B" x="0.781" y="-2.422"/><path d="M18.047 5.846v-.52C18.047 2.39 15.658 0 12.722 0c-1.28 0-2.515.46-3.48 1.295a5.34 5.34 0 0 0-1.449 2.015c-.484-.248-1.025-.38-1.58-.38a3.48 3.48 0 0 0-3.477 3.477v.7C1.17 7.467 0 8.855 0 10.508c0 1.72 1.213 3.165 2.884 3.433.042.007.083.01.125.01a.78.78 0 0 0 .77-.658.78.78 0 0 0-.648-.895c-.91-.146-1.57-.94-1.57-1.9 0-1.055.873-1.914 1.947-1.914h.006a.78.78 0 0 0 .781-.781V6.406c0-1.055.86-1.914 1.914-1.914.548 0 1.07.236 1.435.65a.78.78 0 0 0 1.358-.397 3.79 3.79 0 0 1 3.718-3.181 3.77 3.77 0 0 1 3.763 3.763v.96a.78.78 0 0 0 .415.69c.95.504 1.538 1.483 1.538 2.555 0 1.154-.66 2.192-1.683 2.645a.78.78 0 1 0 .632 1.429C18.974 12.903 20 11.304 20 9.532c0-1.5-.738-2.862-1.953-3.686z"/><use xlink:href="#B" x="11.718" y="-2.422"/><use xlink:href="#B" x="10.936"/><use xlink:href="#B" x="8.203"/><use xlink:href="#B" x="8.984" y="-2.422"/></g><defs ><path id="B" d="M4.844 20a.78.78 0 1 0 0-1.562.78.78 0 1 0 0 1.563z"/></defs></svg>