<svg xmlns="http://www.w3.org/2000/svg" fill="none" viewBox="0 0 20 21"><path d="M19.998 16.148a2.95 2.95 0 0 0-.907-2.03c-1.09-1.05-2.005-1.657-2.877-1.91-1.2-.347-2.313-.03-3.306.937l-1.06 1.05c-.66-.372-1.944-1.187-3.33-2.572l-.103-.103C7.026 10.137 6.21 8.855 5.838 8.197l1.048-1.055c.974-.996 1.3-2.107.943-3.306-.252-.87-.86-1.783-1.91-2.873A2.96 2.96 0 0 0 3.885.057a2.96 2.96 0 0 0-2.093.758l-.022.02-.03.03C.592 2.01-.01 3.612 0 5.5c.016 3.207 1.78 6.875 4.722 9.812.554.554 1.185 1.102 1.873 1.63a.78.78 0 1 0 .951-1.238c-.634-.486-1.213-.988-1.72-1.494-2.656-2.652-4.25-5.91-4.264-8.716-.007-1.454.43-2.668 1.267-3.51l.006-.005c.568-.51 1.428-.478 1.957.07 2.023 2.095 1.876 3.084.982 4L4.327 7.502a.78.78 0 0 0-.159.867c.037.082.926 2.045 3.14 4.257l.103.103c2.215 2.212 4.18 3.1 4.263 3.137a.78.78 0 0 0 .868-.159l1.46-1.446c.917-.893 1.907-1.04 4.004.98a1.4 1.4 0 0 1 .071 1.955l-.006.006c-.838.828-2.04 1.265-3.48 1.265-.012 0-.024 0-.036 0-1.15-.006-2.484-.32-3.855-.91a.78.78 0 0 0-.619 1.433c1.584.683 3.087 1.032 4.466 1.04h.044c1.872 0 3.46-.6 4.6-1.736a.75.75 0 0 0 .029-.03l.02-.023a2.95 2.95 0 0 0 .759-2.09z" fill="#fff"/></svg>