<svg xmlns="http://www.w3.org/2000/svg" fill="none" viewBox="0 0 16 16"><g clip-path="url(#A)" fill="#979797"><path d="M15.468 3.666a1.72 1.72 0 0 0-1.262-.532H11.68v-.03a1.45 1.45 0 0 0-.4-1 1.39 1.39 0 0 0-.989-.411H5.72a1.4 1.4 0 0 0-1.004.411 1.39 1.39 0 0 0-.411.989v.03h-2.5a1.72 1.72 0 0 0-1.262.532A1.81 1.81 0 0 0 0 4.928v7.574a1.72 1.72 0 0 0 .532 1.262 1.81 1.81 0 0 0 1.262.532h12.4a1.72 1.72 0 0 0 1.262-.532c.32-.32.532-.776.532-1.262V4.928a1.72 1.72 0 0 0-.532-1.262zm-.26 8.837h-.015a.97.97 0 0 1-.29.7.98.98 0 0 1-.7.29H1.795c-.274 0-.517-.107-.7-.3s-.3-.426-.3-.7V4.928a.97.97 0 0 1 .29-.7.98.98 0 0 1 .7-.29H4.73a.41.41 0 0 0 .411-.411v-.44c0-.167.06-.32.167-.426s.26-.167.426-.167h4.548c.167 0 .32.06.426.167s.167.26.167.426v.44a.41.41 0 0 0 .411.411h2.935a.97.97 0 0 1 .7.29.98.98 0 0 1 .29.7v7.574zM8 4.974a3.75 3.75 0 0 0-2.646 1.095 3.71 3.71 0 0 0-1.095 2.646 3.75 3.75 0 0 0 1.095 2.646A3.71 3.71 0 0 0 8 12.457a3.75 3.75 0 0 0 2.646-1.095 3.71 3.71 0 0 0 1.095-2.646A3.75 3.75 0 0 0 8 4.974zm2.068 5.825c-.532.517-1.262.852-2.068.852s-1.536-.335-2.068-.852A2.91 2.91 0 0 1 5.08 8.73c0-.806.335-1.536.852-2.068C6.464 6.13 7.194 5.8 8 5.8s1.536.335 2.068.852c.532.532.852 1.262.852 2.068.015.806-.32 1.536-.852 2.068zm3.346-4.35c.412 0 .745-.334.745-.745s-.334-.745-.745-.745-.745.334-.745.745.334.745.745.745z"/></g><defs><clipPath id="A"><path fill="#fff" d="M0 0h16v16H0z"/></clipPath></defs></svg>