<svg xmlns="http://www.w3.org/2000/svg" fill="none" viewBox="0 0 20 21"><path d="M17.046 2.727C15.16 1.004 12.658.055 10 .055s-5.16.95-7.046 2.673C1.05 4.468 0 6.79 0 9.26c0 1.928.63 3.755 1.83 5.312L.057 18.955a.78.78 0 0 0 .181.853.78.78 0 0 0 .859.154l5.026-2.212c1.228.477 2.53.718 3.878.718a10.7 10.7 0 0 0 4.82-1.138.78.78 0 1 0-.708-1.391 9.13 9.13 0 0 1-4.113.969 9.09 9.09 0 0 1-3.583-.723.78.78 0 0 0-.622.004l-3.568 1.57 1.225-3.027a.78.78 0 0 0-.13-.799c-1.15-1.35-1.76-2.964-1.76-4.672 0-4.216 3.785-7.646 8.438-7.646s8.438 3.43 8.438 7.646c0 1.452-.45 2.864-1.305 4.085a.78.78 0 1 0 1.281.893C19.452 12.755 20 11.034 20 9.26c0-2.472-1.05-4.793-2.954-6.534z" fill="#929292"/></svg>