<svg xmlns="http://www.w3.org/2000/svg" fill="none" viewBox="0 0 16 20"><path d="M15.002 7.567c-.3-.676-.968-1.095-1.717-1.095H10.62l3.156-5.292A.78.78 0 0 0 13.107 0H5.7a.78.78 0 0 0-.695.427L1.124 8.08a2.71 2.71 0 0 0 .105 2.665 2.71 2.71 0 0 0 2.327 1.303h2.73L3.57 17.615c-.363.736-.15 1.586.515 2.066.297.214.634.32.97.32.417 0 .83-.163 1.154-.483l.04-.044 6.043-6.954a.78.78 0 0 0-.077-1.1.78.78 0 0 0-1.1.077l-6.02 6.927c-.023.02-.05.03-.1-.007-.06-.044-.046-.076-.027-.115l3.262-6.692a.78.78 0 0 0-.701-1.121H3.556c-.416 0-.78-.203-.997-.558s-.234-.77-.044-1.143L6.18 1.56h5.556L8.578 6.852a.78.78 0 0 0 .67 1.179h4.037c.186 0 .268.117.3.187a.32.32 0 0 1-.055.358.78.78 0 0 0 .083 1.1.78.78 0 0 0 1.1-.083c.5-.57.6-1.347.29-2.025z" fill="#929292"/></svg>