<svg xmlns="http://www.w3.org/2000/svg" fill="none" viewBox="0 0 20 20"><g clip-path="url(#A)"><path d="M18.377 14.767c-.094-.042-.2-.078-.287-.11l-1.386-.62 1.68-.782a2.71 2.71 0 0 0 1.436-1.513c.26-.68.24-1.418-.057-2.082-.614-1.37-2.232-1.988-3.61-1.38l-1.374.624c.198-.548.3-1.132.296-1.732-.012-1.93-1.22-3.033-2.192-3.92-.964-.88-1.554-1.47-1.554-2.472a.78.78 0 0 0-.404-.684.78.78 0 0 0-.795.024l-.07.044C9.6.454 8.38 1.22 7.25 2.38c-1.5 1.53-2.246 3.146-2.246 4.798 0 .617.11 1.208.314 1.755l-1.47-.66c-1.376-.61-2.995.01-3.61 1.38-.297.664-.318 1.403-.057 2.082A2.71 2.71 0 0 0 1.62 13.25l1.704.784-1.404.62a2.77 2.77 0 0 0-.297.112c-.667.297-1.178.836-1.44 1.518S-.06 17.7.238 18.377s.836 1.178 1.518 1.44a2.73 2.73 0 0 0 .98.183c.374 0 .748-.078 1.1-.233l.047-.02 6.12-2.7a.78.78 0 0 0 .136-.077.78.78 0 0 0 .109-1.46l-7.99-3.676a1.16 1.16 0 0 1-.617-.647c-.11-.288-.102-.602.024-.883.263-.587.958-.85 1.547-.6l12.262 5.495c-.3.26-.54.582-.706.954-.17.38-.248.782-.237 1.184l-1.05-.465a.78.78 0 1 0-.633 1.428l3.305 1.463.063.024a2.72 2.72 0 0 0 1.049.212c.33 0 .662-.06.98-.183.682-.262 1.22-.773 1.518-1.44s.317-1.4.055-2.09-.773-1.22-1.44-1.518zm-13.16.137L8.033 16.2 5.47 17.337c.01-.402-.068-.806-.237-1.184-.164-.368-.402-.69-.697-.946l.68-.3zm-1.41 1.883c.127.286.136.604.024.896s-.33.523-.617.65-.604.136-.896.024-.523-.33-.65-.617-.136-.604-.024-.896.33-.523.617-.65l.028-.012.007.016.162-.072a1.16 1.16 0 0 1 .279-.034 1.17 1.17 0 0 1 .42.078c.292.112.523.33.65.617zm6.234-6.124a1 1 0 0 1-1.001-.996c0-.53.355-1.137.74-1.633.212.304.464.543.68.748.42.4.58.58.58.884a1 1 0 0 1-1.001.996zm1.497-3.013c-.433-.412-.66-.647-.66-1.092a.78.78 0 0 0-1.288-.595c-.21.18-2.022 1.772-2.11 3.568-.567-.62-.913-1.446-.913-2.352 0-1.704 1.2-3.488 3.432-5.09.373.988 1.135 1.684 1.83 2.32.9.82 1.675 1.53 1.683 2.777a3.42 3.42 0 0 1-.913 2.355c-.05-.925-.632-1.48-1.062-1.89zm3.28 5.54l-2.867-1.285 4.838-2.198c.59-.26 1.285.004 1.547.6.126.282.135.595.024.883a1.16 1.16 0 0 1-.617.648l-2.925 1.36zm3.517 4.55c-.127.286-.358.505-.65.617s-.6.104-.896-.024-.505-.358-.617-.65-.104-.6.024-.896.358-.505.65-.617a1.17 1.17 0 0 1 .42-.078 1.16 1.16 0 0 1 .283.035l.155.07a.78.78 0 0 0 .135.046c.238.133.42.344.52.602.112.292.104.6-.024.896z" fill="#3d3d3d"/></g><defs><clipPath id="A"><path d="M0 0h20v20H0z" fill="#fff"/></clipPath></defs></svg>