<svg xmlns="http://www.w3.org/2000/svg" fill="none" viewBox="0 0 18 18"><g clip-path="url(#A)"><path d="M18 9a8.96 8.96 0 0 1-1.525 4.996c-.216.323-.653.4-.975.194s-.4-.653-.194-.975c.842-1.26 1.288-2.718 1.288-4.215 0-4.187-3.407-7.594-7.594-7.594S1.406 4.813 1.406 9 4.813 16.594 9 16.594a7.58 7.58 0 0 0 3.928-1.094c.332-.2.765-.095.966.237s.095.764-.237.966A8.98 8.98 0 0 1 9 18a8.94 8.94 0 0 1-6.364-2.636A8.94 8.94 0 0 1 0 9a8.94 8.94 0 0 1 2.636-6.364A8.94 8.94 0 0 1 9 0a8.94 8.94 0 0 1 6.364 2.636A8.94 8.94 0 0 1 18 9zm-9 4.36c-.388 0-.703.315-.703.703s.315.703.703.703.703-.315.703-.703A.7.7 0 0 0 9 13.36zm1.476-2.972a3.76 3.76 0 0 0 2.286-3.462.7.7 0 0 0-.001-.035 3.77 3.77 0 0 0-3.76-3.726c-2.074 0-3.76 1.687-3.76 3.76 0 .388.315.703.703.703s.703-.315.703-.703A2.36 2.36 0 0 1 9 4.57a2.36 2.36 0 0 1 2.355 2.355.67.67 0 0 0 .001.028 2.35 2.35 0 0 1-1.432 2.14c-.973.415-1.627 1.423-1.627 2.508 0 .388.315.703.703.703s.703-.315.703-.703c0-.53.3-1.017.773-1.214z" fill="#979797"/></g><defs><clipPath id="A"><path d="M0 0h18v18H0z" fill="#fff"/></clipPath></defs></svg>