<svg xmlns="http://www.w3.org/2000/svg" fill="none" viewBox="0 0 26 26"><g clip-path="url(#A)" fill="#fff"><path d="M23.768 4.656l-10.4-4.57a1.02 1.02 0 0 0-.82.001L2.23 4.657c-.367.163-.604.527-.604.928v8.023c0 3.032 1.198 6.132 3.288 8.504 1.05 1.193 2.262 2.137 3.6 2.807A9.94 9.94 0 0 0 13 26c2.16 0 4.264-.7 6.082-2.023a1.02 1.02 0 0 0 .224-1.42c-.33-.455-.965-.553-1.42-.223-1.47 1.07-3.158 1.634-4.887 1.634-4.9 0-9.344-4.938-9.344-10.36v-7.36l9.295-4.12 9.393 4.124v7.36c0 1.87-.537 3.763-1.554 5.473-.287.482-.128 1.105.354 1.392s1.105.128 1.392-.354c1.203-2.024 1.84-4.276 1.84-6.5V5.586c0-.403-.238-.768-.607-.93zm-5.924 3.342l-6.297 7.868-3.53-3.395c-.404-.4-1.047-.376-1.436.028s-.376 1.047.028 1.436l3.58 3.443a1.96 1.96 0 0 0 1.363.548l.082-.002a1.96 1.96 0 0 0 1.392-.656l.036-.043 6.37-7.958c.35-.438.28-1.077-.158-1.428s-1.077-.28-1.428.158z"/></g><defs><clipPath id="A"><path d="M0 0h26v26H0z" fill="#fff"/></clipPath></defs></svg>