<svg xmlns="http://www.w3.org/2000/svg" fill="#979797" viewBox="0 0 16 16"><path d="M6.03 6.6a1.1 1.1 0 0 0 1.1-1.099 1.1 1.1 0 0 0-1.099-1.099 1.1 1.1 0 0 0-1.099 1.099A1.1 1.1 0 0 0 6.031 6.61zm9.023 2.947c-.52-.5-1.175-.8-1.893-.9V3.07c0-.595-.244-1.13-.626-1.527a2.13 2.13 0 0 0-1.527-.626H2.153c-.595 0-1.13.244-1.527.626C.23 1.94 0 2.473 0 3.07v9.115c0 .595.244 1.13.626 1.527a2.13 2.13 0 0 0 1.527.626h8.565c.565.458 1.267.748 2.046.748A3.23 3.23 0 0 0 16 11.847a3.23 3.23 0 0 0-.947-2.29zM.8 3.07c0-.366.153-.702.397-.93a1.34 1.34 0 0 1 .947-.397H11a1.34 1.34 0 0 1 .947.397 1.34 1.34 0 0 1 .397.947V7.85l-2.26-2.26a.41.41 0 0 0-.58 0L6.108 9 3.803 6.7a.41.41 0 0 0-.58 0L.8 9.13V3.07zm1.328 10.5v-.03a1.34 1.34 0 0 1-.947-.397 1.39 1.39 0 0 1-.382-.947V10.3l2.7-2.727 2.305 2.305c.153.153.412.153.58 0L9.8 6.458l2.23 2.244-.137.046c-.06.015-.122.03-.198.06-.06.015-.122.046-.183.06a.46.46 0 0 0-.122.06c-.06.03-.107.046-.153.076l-.23.137-.122.076c-.03.015-.046.03-.076.046-.137.092-.26.198-.367.32a3.23 3.23 0 0 0-.947 2.29c0 .23.03.443.076.672l.046.168.153.458v.015c.06.122.122.26.198.366h-7.83zm12.32 0a2.38 2.38 0 0 1-1.7.702 2.41 2.41 0 0 1-1.664-.672l-.183-.198c-.046-.046-.092-.107-.137-.153-.06-.076-.107-.168-.153-.26l-.092-.168c-.03-.076-.06-.168-.076-.26l-.06-.198a2.52 2.52 0 0 1-.046-.489 2.45 2.45 0 0 1 .702-1.71 2.36 2.36 0 0 1 1.71-.702 2.45 2.45 0 0 1 1.71.702 2.38 2.38 0 0 1 .702 1.7c0 .656-.275 1.252-.702 1.695zm-1.4-3.356c-.03-.03-.076-.06-.137-.092-.046-.015-.092-.03-.137-.03h-.03c-.046 0-.092.015-.138.03a.36.36 0 0 0-.137.092l-.947.947c-.153.153-.153.412 0 .58.153.153.412.153.58 0l.244-.244v1.68a.41.41 0 1 0 .824 0v-1.68l.244.244c.153.153.412.153.58 0 .153-.153.153-.412 0-.58l-.947-.947z"/></svg>