<svg xmlns="http://www.w3.org/2000/svg" fill="none" viewBox="0 0 20 20"><path d="M19.773 9.235L11.6 1A2.34 2.34 0 0 0 8.476.993l-.032.03-8.214 8.2a.78.78 0 1 0 1.104 1.106l.62-.62v6.745a3.13 3.13 0 0 0 3.125 3.125H7.9a.78.78 0 0 0 .781-.781V12.44h2.734v6.367a.78.78 0 0 0 .781.781h2.734a3.13 3.13 0 0 0 3.125-3.125.78.78 0 1 0-1.562 0c0 .862-.7 1.563-1.562 1.563h-1.95V11.66a.78.78 0 0 0-.781-.781H7.9a.78.78 0 0 0-.781.781v6.367H5.08c-.862 0-1.562-.7-1.562-1.562V8.16l6.013-6a.78.78 0 0 1 1.014.002l5.942 5.98v4.417a.78.78 0 1 0 1.563 0V9.714l.618.622a.78.78 0 1 0 1.109-1.101z" fill="#929292"/></svg>