<svg xmlns="http://www.w3.org/2000/svg" fill="#979797" viewBox="0 0 18 18"><path d="M9 5.168c.388 0 .703-.315.703-.703S9.388 3.762 9 3.762s-.703.315-.703.703.315.703.703.703zm6.364-2.532A8.94 8.94 0 0 0 9 0a8.94 8.94 0 0 0-6.364 2.636A8.94 8.94 0 0 0 0 9a8.94 8.94 0 0 0 2.636 6.364A8.94 8.94 0 0 0 9 18a8.98 8.98 0 0 0 4.657-1.297c.332-.2.438-.634.237-.966s-.633-.438-.966-.237A7.58 7.58 0 0 1 9 16.594c-4.187 0-7.594-3.407-7.594-7.594S4.813 1.406 9 1.406 16.594 4.813 16.594 9a7.56 7.56 0 0 1-1.288 4.215.7.7 0 0 0 .194.975c.324.215.76.13.975-.194A8.96 8.96 0 0 0 18 9a8.94 8.94 0 0 0-2.636-6.364zM9 6.574c-.388 0-.703.315-.703.703v6.258c0 .388.315.703.703.703s.703-.315.703-.703V7.277c0-.388-.315-.703-.703-.703z"/></svg>