<svg xmlns="http://www.w3.org/2000/svg" fill="#1b76bc" viewBox="0 0 21 16"><path d="M10.507 4.615a3.06 3.06 0 0 0-3.058 3.058 3.06 3.06 0 0 0 3.058 3.058c1.686 0 3.058-1.372 3.058-3.058a3.06 3.06 0 0 0-3.058-3.058zM7.1 4.276c.338-.338.338-.886 0-1.224s-.886-.338-1.224 0c-2.548 2.548-2.548 6.694 0 9.242a.86.86 0 0 0 .612.254c.222 0 .443-.085.612-.253.338-.338.338-.886 0-1.224-1.873-1.873-1.873-4.922 0-6.795zm8.028-1.224c-.338-.338-.886-.338-1.224 0s-.338.886 0 1.224a4.8 4.8 0 0 1 1.412 3.397 4.78 4.78 0 0 1-1.412 3.398c-.338.338-.338.886 0 1.224a.86.86 0 0 0 .612.253.87.87 0 0 0 .612-.253c1.238-1.238 1.92-2.88 1.92-4.62s-.682-3.383-1.92-4.62zM1.73 7.687a8.73 8.73 0 0 1 2.58-6.21c.338-.338.338-.886 0-1.224s-.886-.338-1.224 0C1.096 2.244 0 4.885 0 7.687s1.096 5.443 3.088 7.434a.86.86 0 0 0 1.224 0c.338-.338.338-.886 0-1.224-1.664-1.664-2.58-3.87-2.58-6.2zM17.926.253c-.338-.338-.886-.338-1.224 0s-.338.886 0 1.224c3.424 3.424 3.424 8.996 0 12.42-.338.338-.338.886 0 1.224a.86.86 0 0 0 1.224 0c4.1-4.1 4.1-10.768 0-14.867z"/></svg>