<svg width="20" height="20" viewBox="0 0 20 20" fill="none" xmlns="http://www.w3.org/2000/svg">
<path d="M10 3.125C7.30762 3.125 5.11719 5.31543 5.11719 8.00781C5.11719 10.7002 7.30762 12.8906 10 12.8906C10.4547 12.8906 10.9053 12.828 11.3391 12.7045C11.7541 12.5864 11.9948 12.1542 11.8767 11.7392C11.7585 11.3243 11.3264 11.0836 10.9114 11.2017C10.6167 11.2856 10.31 11.3281 10 11.3281C8.16918 11.3281 6.67969 9.83863 6.67969 8.00781C6.67969 6.17699 8.16918 4.6875 10 4.6875C11.8308 4.6875 13.3203 6.17699 13.3203 8.00781C13.3203 8.33355 13.2734 8.65508 13.181 8.9634C13.057 9.37668 13.2916 9.81219 13.7049 9.93613C14.1182 10.06 14.5536 9.82555 14.6776 9.41223C14.8138 8.9582 14.8828 8.4857 14.8828 8.00781C14.8828 5.31543 12.6924 3.125 10 3.125Z" fill="#3D3D3D"/>
<path d="M15.6593 2.34234C14.1472 0.831875 12.1373 0 10 0C7.86266 0 5.85286 0.831875 4.34075 2.34238C2.82879 3.85277 1.99477 5.86144 1.99231 8.00012C1.99383 9.55695 2.42625 11.0176 3.31422 12.4655C4.08317 13.7193 5.08211 14.8133 6.13969 15.9715C7.17668 17.1071 8.24891 18.2814 9.10524 19.6362C9.2484 19.8627 9.4977 20 9.76563 20H10.2344C10.5023 20 10.7516 19.8627 10.8948 19.6361C11.7511 18.2814 12.8233 17.1071 13.8603 15.9715C14.9179 14.8133 15.9168 13.7193 16.6858 12.4655C17.5738 11.0175 18.0062 9.55688 18.0077 7.9984C18.0053 5.86141 17.1712 3.85273 15.6593 2.34234ZM12.7065 14.9179C11.7845 15.9277 10.8357 16.9666 10 18.1616C9.1643 16.9666 8.21555 15.9277 7.29352 14.9179C5.28887 12.7226 3.55754 10.8266 3.55481 8.00023C3.55887 4.45047 6.4502 1.5625 10 1.5625C13.5498 1.5625 16.4411 4.45047 16.4452 7.99855C16.4425 10.8266 14.7111 12.7225 12.7065 14.9179Z" fill="#3D3D3D"/>
</svg>
