<svg xmlns="http://www.w3.org/2000/svg" fill="none" viewBox="0 0 20 20"><path d="M18.265 1.735C17.146.616 15.66 0 14.076 0s-3.07.616-4.19 1.735L1.735 9.887C.616 11.006 0 12.493 0 14.076s.616 3.07 1.735 4.19S4.342 20 5.924 20s3.07-.616 4.19-1.735L14.2 14.18a.78.78 0 0 0 0-1.105l-6.72-6.72 3.513-3.513c.824-.824 1.92-1.277 3.084-1.277A4.33 4.33 0 0 1 17.16 2.84a4.33 4.33 0 0 1 1.277 3.084 4.33 4.33 0 0 1-1.276 3.083L15.8 10.36a.78.78 0 1 0 1.102 1.108l1.363-1.355C19.384 8.994 20 7.507 20 5.924s-.616-3.07-1.735-4.19zm-5.723 11.89L9.01 17.16a4.33 4.33 0 0 1-3.084 1.277A4.33 4.33 0 0 1 2.84 17.16c-.824-.824-1.277-1.92-1.277-3.084a4.33 4.33 0 0 1 1.278-3.084l3.534-3.534 6.168 6.168zm2.503-8.7a1.35 1.35 0 0 0-1.905 0l-1.9 1.902a.78.78 0 0 1-1.105 0 .78.78 0 0 1 0-1.105l1.9-1.902c1.135-1.135 2.98-1.135 4.115 0a.78.78 0 1 1-1.105 1.105zM3.85 16.19a.78.78 0 1 1 1.105-1.105 1.35 1.35 0 0 0 1.905 0l1.907-1.91a.78.78 0 1 1 1.105 1.104l-1.908 1.91a2.9 2.9 0 0 1-2.057.851 2.9 2.9 0 0 1-2.057-.851z" fill="#3d3d3d"/></svg>