<svg xmlns="http://www.w3.org/2000/svg" xmlns:xlink="http://www.w3.org/1999/xlink" fill="none" viewBox="0 0 53 53"><circle cx="26.5" cy="51.5" r="1.5" fill="#1a1a1a"/><path stroke="#1a1a1a" d="M26.5 37v14"/><g filter="url(#A)"><circle cx="26.5" cy="24.5" r="16.5" fill="#1b76bc"/></g><g fill="#fff"><path d="M29.513 26.872a.6.6 0 0 0 .503.277h.228c.204 0 .394-.105.503-.277.406-.642.92-1.206 1.418-1.75 1.018-1.114 2.07-2.267 2.072-4.02C34.234 18.84 32.392 17 30.13 17s-4.104 1.84-4.107 4.103c.002 1.752 1.054 2.904 2.072 4.02.498.545 1.012 1.108 1.418 1.75zm.617-8.682a2.92 2.92 0 0 1 2.916 2.912c-.001 1.3-.816 2.183-1.76 3.217l-1.156 1.354c-.367-.5-.767-.927-1.156-1.354-.944-1.034-1.76-1.927-1.76-3.216a2.92 2.92 0 0 1 2.916-2.913zm.565 4.163c0-.33-.267-.595-.595-.595s-.595-.267-.595-.595.267-.595.595-.595.595.267.595.595.266.595.595.595.595-.267.595-.595a1.79 1.79 0 0 0-1.786-1.786 1.79 1.79 0 0 0-1.785 1.786 1.79 1.79 0 0 0 1.785 1.786c.33 0 .595-.267.595-.595zm2.945 3.13c-.33 0-.595.266-.595.595v4.36c0 .205-.098.4-.268.506a.58.58 0 0 1-.543.066l-.03-.01-2.246-.74c-.632-.233-1.3-.267-1.962-.098l-3.116.808c-.405.105-.833.107-1.24.006l-2.55-.633a1.19 1.19 0 0 1-.903-1.155v-10.4c0-.2.095-.38.26-.492s.367-.135.553-.06l.028.01 2.222.75a3.28 3.28 0 0 0 1.779.154c.323-.062.535-.374.473-.696s-.374-.535-.696-.473a2.09 2.09 0 0 1-1.142-.101l-.022-.008-2.22-.75c-.546-.2-1.16-.14-1.645.2s-.78.885-.78 1.476v10.398c0 1.096.743 2.046 1.807 2.3l2.55.633a3.71 3.71 0 0 0 1.825-.01l3.116-.808a2.08 2.08 0 0 1 1.258.065l.022.008 2.243.74c.54.204 1.15.13 1.63-.2.492-.337.786-.893.786-1.488v-4.36c0-.33-.266-.595-.595-.595z"/><use xlink:href="#B"/><use xlink:href="#C"/><use xlink:href="#C" y="2.143"/><use xlink:href="#B" y="-2.143"/><use xlink:href="#B" y="6.428"/></g><defs><filter id="A" x="0" y="0" width="53" height="53" color-interpolation-filters="sRGB" filterUnits="userSpaceOnUse"><feFlood flood-opacity="0" result="A"/><feColorMatrix in="SourceAlpha" values="0 0 0 0 0 0 0 0 0 0 0 0 0 0 0 0 0 0 127 0"/><feOffset dy="2"/><feGaussianBlur stdDeviation="5"/><feColorMatrix values="0 0 0 0 0 0 0 0 0 0 0 0 0 0 0 0 0 0 0.1 0"/><feBlend in2="A"/><feBlend in="SourceGraphic"/></filter><path id="B" d="M24.267 22.478c-.33 0-.595.266-.595.595s.266.595.595.595.595-.267.595-.595-.266-.595-.595-.595z"/><path id="C" d="M24.267 24.62c-.33 0-.595.266-.595.595s.266.595.595.595.595-.266.595-.595-.266-.595-.595-.595z"/></defs></svg>