<?xml version="1.0" encoding="UTF-8"?>
<svg fill="none" viewBox="0 0 53 53" xmlns="http://www.w3.org/2000/svg">
<circle cx="26.5" cy="51.5" r="1.5" fill="#1A1A1A"/>
<line x1="26.5" x2="26.5" y1="37" y2="51" stroke="#1A1A1A"/>
<g filter="url(#a)">
<circle cx="26.5" cy="24.5" r="16.5" fill="#1B76BC"/>
</g>
<path d="m29.513 26.872c0.1091 0.1725 0.2989 0.2772 0.5031 0.2772h0.2277c0.2042 0 0.3941-0.1047 0.5031-0.2772 0.406-0.6422 0.9205-1.2057 1.418-1.7506 1.0177-1.1145 2.0701-2.2669 2.0718-4.0199-0.0026-2.2619-1.8449-4.102-4.1067-4.102-2.2619 0-4.1041 1.8401-4.1068 4.1032 0.0017 1.7518 1.0541 2.9042 2.0718 4.0187 0.4975 0.5449 1.012 1.1084 1.418 1.7506zm0.617-8.6821c1.6062 0 2.9145 1.3067 2.9163 2.9117-0.0012 1.2907-0.8164 2.1835-1.7603 3.2172-0.3896 0.4265-0.7888 0.8637-1.156 1.354-0.3673-0.4902-0.7665-0.9275-1.156-1.354-0.9439-1.0337-1.7591-1.9265-1.7604-3.216 0.0018-1.6062 1.3101-2.9129 2.9164-2.9129z" fill="#fff"/>
<path d="m30.695 22.353c0-0.3287-0.2665-0.5952-0.5952-0.5952-0.3282 0-0.5952-0.267-0.5952-0.5952s0.267-0.5951 0.5952-0.5951 0.5952 0.2669 0.5952 0.5951c0 0.3287 0.2664 0.5952 0.5952 0.5952 0.3287 0 0.5951-0.2665 0.5951-0.5952 0-0.9845-0.8009-1.7855-1.7855-1.7855-0.9845 0-1.7855 0.801-1.7855 1.7855 0 0.9846 0.801 1.7856 1.7855 1.7856 0.3287 0 0.5952-0.2665 0.5952-0.5952z" fill="#fff"/>
<path d="m33.641 25.484c-0.3288 0-0.5952 0.2665-0.5952 0.5952v4.3586c0 0.2047-0.0977 0.389-0.268 0.5055-0.1637 0.112-0.3616 0.1359-0.5427 0.0655-0.0096-0.0037-0.0194-0.0072-0.0292-0.0105l-2.2456-0.7406c-0.6317-0.2333-1.3098-0.2673-1.9619-0.098l-3.116 0.8085c-0.4047 0.1051-0.8331 0.1073-1.239 0.0065l-2.55-0.6335c-0.5319-0.1321-0.9034-0.6072-0.9034-1.1552v-10.398c0-0.2002 0.0949-0.3796 0.2604-0.4921 0.1655-0.1126 0.3672-0.135 0.5534-0.0615 0.0093 0.0037 0.0186 0.0071 0.028 0.0103l2.2221 0.7508c0.5678 0.2152 1.1829 0.2686 1.7795 0.1544 0.3229-0.0618 0.5346-0.3736 0.4728-0.6964s-0.3737-0.5346-0.6964-0.4727c-0.3829 0.0732-0.7777 0.0382-1.1418-0.1013-0.0074-0.0029-0.0149-0.0056-0.0224-0.0081l-2.22-0.7501c-0.5464-0.2101-1.16-0.1394-1.6447 0.1903-0.4892 0.3328-0.7813 0.8847-0.7813 1.4764v10.398c0 1.0961 0.7429 2.0462 1.8068 2.3105l2.55 0.6334c0.2926 0.0727 0.5931 0.109 0.8937 0.109 0.3135 0 0.627-0.0395 0.9313-0.1185l3.1159-0.8085c0.4183-0.1085 0.8531-0.086 1.2578 0.0652 0.0073 0.0027 0.0146 0.0053 0.0219 0.0077l2.2429 0.7397c0.541 0.2041 1.1491 0.1304 1.6301-0.1988 0.4922-0.3369 0.7861-0.8931 0.7861-1.4879v-4.3586c0-0.3287-0.2664-0.5952-0.5951-0.5952z" fill="#fff"/>
<path d="m24.267 22.478c-0.3288 0-0.5952 0.2664-0.5952 0.5952 0 0.3286 0.2664 0.5952 0.5952 0.5952s0.5952-0.2666 0.5952-0.5952c0-0.3288-0.2664-0.5952-0.5952-0.5952z" fill="#fff"/>
<path d="m24.267 24.62c-0.3288 0-0.5952 0.2663-0.5952 0.5952 0 0.3288 0.2664 0.5951 0.5952 0.5951s0.5952-0.2663 0.5952-0.5951c0-0.3289-0.2664-0.5952-0.5952-0.5952z" fill="#fff"/>
<path d="m24.267 26.763c-0.3288 0-0.5952 0.2664-0.5952 0.5952s0.2664 0.5952 0.5952 0.5952 0.5952-0.2664 0.5952-0.5952-0.2664-0.5952-0.5952-0.5952z" fill="#fff"/>
<path d="m24.267 20.335c-0.3288 0-0.5952 0.2663-0.5952 0.5951 0 0.3286 0.2664 0.5952 0.5952 0.5952s0.5952-0.2666 0.5952-0.5952c0-0.3288-0.2664-0.5951-0.5952-0.5951z" fill="#fff"/>
<path d="m24.267 28.906c-0.3288 0-0.5952 0.2663-0.5952 0.5951 0 0.3286 0.2664 0.5952 0.5952 0.5952s0.5952-0.2666 0.5952-0.5952c0-0.3288-0.2664-0.5951-0.5952-0.5951z" fill="#fff"/>
<defs>
<filter id="a" x="0" y="0" width="53" height="53" color-interpolation-filters="sRGB" filterUnits="userSpaceOnUse">
<feFlood flood-opacity="0" result="BackgroundImageFix"/>
<feColorMatrix in="SourceAlpha" values="0 0 0 0 0 0 0 0 0 0 0 0 0 0 0 0 0 0 127 0"/>
<feOffset dy="2"/>
<feGaussianBlur stdDeviation="5"/>
<feColorMatrix values="0 0 0 0 0 0 0 0 0 0 0 0 0 0 0 0 0 0 0.1 0"/>
<feBlend in2="BackgroundImageFix" result="effect1_dropShadow"/>
<feBlend in="SourceGraphic" in2="effect1_dropShadow" result="shape"/>
</filter>
</defs>
</svg>
