<svg xmlns="http://www.w3.org/2000/svg" xmlns:xlink="http://www.w3.org/1999/xlink" viewBox="0 0 20 20"><g fill="#4f4f4f"><path d="M13.798 12.958a.78.78 0 0 0 .66.364h.3a.78.78 0 0 0 .66-.364c.533-.843 1.208-1.582 1.86-2.298 1.336-1.463 2.717-2.975 2.72-5.276A5.4 5.4 0 0 0 14.608 0a5.4 5.4 0 0 0-5.39 5.385c.002 2.3 1.383 3.812 2.72 5.275.653.715 1.328 1.455 1.86 2.298zm.8-11.395c2.108 0 3.825 1.715 3.828 3.822-.002 1.694-1.072 2.866-2.3 4.223L14.6 11.385c-.482-.643-1.006-1.217-1.517-1.777-1.24-1.357-2.3-2.53-2.3-4.22.002-2.108 1.72-3.823 3.828-3.823zm.752 5.463a.78.78 0 0 0-.781-.781.781.781 0 1 1 .781-.781.78.78 0 1 0 1.562 0c0-1.292-1.05-2.343-2.344-2.343s-2.344 1.05-2.344 2.344 1.05 2.343 2.344 2.343a.78.78 0 0 0 .781-.781zm3.867 4.108a.78.78 0 0 0-.781.781v5.72a.79.79 0 0 1-.352.663.76.76 0 0 1-.712.086l-.038-.014-2.947-.972c-.83-.306-1.72-.35-2.575-.13l-4.1 1.06c-.53.138-1.093.14-1.626.008l-3.347-.83a1.56 1.56 0 0 1-1.186-1.516V2.346a.77.77 0 0 1 .342-.646.77.77 0 0 1 .726-.081l.037.013 2.916.985c.745.282 1.553.353 2.336.203a.78.78 0 1 0-.294-1.535c-.503.096-1.02.05-1.5-.133l-.03-.01L3.184.158a2.34 2.34 0 0 0-2.159.25A2.34 2.34 0 0 0 0 2.346v13.647a3.12 3.12 0 0 0 2.371 3.033l3.347.83a4.87 4.87 0 0 0 2.395-.012l4.1-1.06a2.73 2.73 0 0 1 1.65.086l.03.01 2.944.97a2.33 2.33 0 0 0 2.139-.261c.646-.442 1.032-1.172 1.032-1.953v-5.72a.78.78 0 0 0-.781-.781z"/><use xlink:href="#B"/><use xlink:href="#B" y="2.812"/><use xlink:href="#B" y="5.624"/><use xlink:href="#B" y="-2.813"/><use xlink:href="#B" y="8.436"/></g><defs ><path id="B" d="M6.913 7.19a.78.78 0 1 0 0 1.562.78.78 0 1 0 0-1.562z"/></defs></svg>