<?xml version="1.0" encoding="UTF-8"?>
<svg viewBox="0 0 20 20" xmlns="http://www.w3.org/2000/svg">
<path d="m13.798 12.958c0.1432 0.2264 0.3924 0.3637 0.6604 0.3637h0.2989c0.2679 0 0.5172-0.1373 0.6603-0.3638 0.5328-0.8429 1.2081-1.5824 1.8611-2.2976 1.3358-1.4628 2.7169-2.9753 2.7192-5.2762-0.0034-2.9686-2.4214-5.3838-5.3901-5.3838-2.9686 0-5.3866 2.4152-5.39 5.3855 0.00223 2.2992 1.3834 3.8118 2.7191 5.2745 0.6531 0.7152 1.3283 1.4548 1.8611 2.2977zm0.8098-11.395c2.1082 0 3.8254 1.7152 3.8278 3.8216-0.0017 1.6941-1.0716 2.8658-2.3105 4.2225-0.5113 0.55988-1.0353 1.1337-1.5173 1.7772-0.4819-0.6434-1.0059-1.2173-1.5172-1.7772-1.2389-1.3567-2.3088-2.5285-2.3105-4.2209 0.0024-2.1081 1.7195-3.8233 3.8277-3.8233z" fill="#4F4F4F"/>
<path d="m15.35 7.0255c0-0.43144-0.3497-0.78117-0.7811-0.78117-0.4308 0-0.7812-0.35043-0.7812-0.78117 0-0.43075 0.3504-0.78118 0.7812-0.78118 0.4307 0 0.7811 0.35043 0.7811 0.78118 0 0.43144 0.3497 0.78117 0.7812 0.78117 0.4314 0 0.7812-0.34973 0.7812-0.78117 0-1.2922-1.0513-2.3435-2.3435-2.3435-1.2923 0-2.3436 1.0513-2.3436 2.3435 0 1.2922 1.0513 2.3435 2.3436 2.3435 0.4314 0 0.7811-0.34976 0.7811-0.78117z" fill="#4F4F4F"/>
<path d="m19.217 11.134c-0.4314 0-0.7812 0.3497-0.7812 0.7811v5.7207c0 0.2687-0.1282 0.5105-0.3518 0.6635-0.2148 0.147-0.4745 0.1784-0.7122 0.0859-0.0127-0.0048-0.0254-0.0094-0.0383-0.0137l-2.9474-0.972c-0.8291-0.3063-1.7191-0.3509-2.575-0.1288l-4.0897 1.0613c-0.53121 0.1378-1.0935 0.1407-1.6262 0.0084l-3.347-0.8314c-0.69813-0.1734-1.1857-0.7969-1.1857-1.5163v-13.647c0-0.2627 0.12457-0.49817 0.3418-0.6459 0.21723-0.14778 0.48199-0.17719 0.72629-0.08067 0.01219 0.00481 0.02445 0.0093 0.03683 0.01348l2.9164 0.98547c0.74535 0.28238 1.5526 0.3525 2.3357 0.20266 0.42375-0.0811 0.70157-0.49032 0.62051-0.91403-0.08109-0.42375-0.49043-0.70164-0.91402-0.62051-0.50262 0.09618-1.0208 0.0502-1.4986-0.13293-0.00976-0.00375-0.01957-0.00726-0.02945-0.01058l-2.9138-0.98453c-0.71719-0.2757-1.5225-0.18289-2.1586 0.24984-0.64211 0.43676-1.0255 1.1611-1.0255 1.9377v13.647c0 1.4387 0.97512 2.6858 2.3714 3.0326l3.3469 0.8314c0.38406 0.0954 0.77852 0.1431 1.173 0.1431 0.41144 0 0.82289-0.0519 1.2223-0.1556l4.0897-1.0612c0.5489-0.1424 1.1197-0.1128 1.6508 0.0856 0.0095 0.0036 0.0191 0.0069 0.0287 0.0101l2.9438 0.9708c0.7101 0.268 1.5082 0.1712 2.1395-0.2609 0.6461-0.4421 1.0318-1.1721 1.0318-1.9528v-5.7207c1e-4 -0.4314-0.3497-0.7811-0.7811-0.7811z" fill="#4F4F4F"/>
<path d="m6.9134 7.1892c-0.4316 0-0.78117 0.34957-0.78117 0.78117 0 0.43121 0.34957 0.78117 0.78117 0.78117s0.78117-0.34996 0.78117-0.78117c0-0.4316-0.34957-0.78117-0.78117-0.78117z" fill="#4F4F4F"/>
<path d="m6.9134 10.002c-0.4316 0-0.78117 0.3495-0.78117 0.7811s0.34957 0.7812 0.78117 0.7812 0.78117-0.3496 0.78117-0.7812-0.34957-0.7811-0.78117-0.7811z" fill="#4F4F4F"/>
<path d="m6.9134 12.814c-0.4316 0-0.78117 0.3496-0.78117 0.7812s0.34957 0.7812 0.78117 0.7812 0.78117-0.3496 0.78117-0.7812-0.34957-0.7812-0.78117-0.7812z" fill="#4F4F4F"/>
<path d="m6.9134 4.3771c-0.4316 0-0.78117 0.34957-0.78117 0.78117 0 0.43121 0.34957 0.78117 0.78117 0.78117s0.78117-0.34996 0.78117-0.78117c0-0.4316-0.34957-0.78117-0.78117-0.78117z" fill="#4F4F4F"/>
<path d="m6.9134 15.626c-0.4316 0-0.78117 0.3496-0.78117 0.7812 0 0.4312 0.34957 0.7811 0.78117 0.7811s0.78117-0.3499 0.78117-0.7811c0-0.4316-0.34957-0.7812-0.78117-0.7812z" fill="#4F4F4F"/>
</svg>
