<svg xmlns="http://www.w3.org/2000/svg" viewBox="0 0 18 18" fill="#979797"><path d="M16.417 13.4c-.072-.382-.44-.633-.82-.562s-.633.44-.562.82a.69.69 0 0 1-.15.58c-.08.095-.254.254-.54.254H3.67c-.287 0-.462-.16-.54-.254s-.203-.297-.15-.58c.2-1.064.6-1.764.987-2.44.47-.822.956-1.672.956-2.982V7.172c0-2.217 1.802-4.046 4.018-4.078h.133a4.09 4.09 0 0 1 4.005 4.078v1.055c0 1.115.365 1.883.707 2.514.127.235.37.37.62.37a.7.7 0 0 0 .618-1.038c-.34-.63-.537-1.132-.537-1.845V7.172c0-1.447-.56-2.814-1.578-3.848A5.43 5.43 0 0 0 9.704 1.73V.703a.7.7 0 1 0-1.407 0v1.03c-2.688.35-4.78 2.668-4.78 5.44v1.055c0 .937-.34 1.532-.77 2.285-.424.742-.905 1.583-1.148 2.88-.116.62.048 1.252.45 1.737a2.1 2.1 0 0 0 1.623.762h3.234a2.1 2.1 0 0 0 2.1 2.1 2.11 2.11 0 0 0 2.11-2.11h3.22a2.1 2.1 0 0 0 1.623-.762c.402-.485.567-1.118.45-1.737zm-7.403 3.202c-.388 0-.703-.316-.703-.703h1.406c0 .388-.315.703-.703.703zM3.8 1.585c-.3-.26-.734-.234-.993.055A8.32 8.32 0 0 0 .703 7.17c0 .388.315.703.703.703s.703-.315.703-.703a6.88 6.88 0 0 1 1.755-4.594c.26-.3.234-.734-.055-.993zm11.383.055c-.26-.3-.703-.314-.993-.055s-.314.704-.055.993a6.88 6.88 0 0 1 1.755 4.594c0 .388.315.703.703.703s.703-.315.703-.703a8.28 8.28 0 0 0-2.114-5.532z"/></svg>