<svg xmlns="http://www.w3.org/2000/svg" viewBox="0 0 20 20" fill="#1b76bc"><path d="M11.863 2.27l-1.9 1.9c-1.097 1.097-1.097 2.88 0 3.978l1.9 1.9c1.097 1.097 2.88 1.097 3.978 0l1.9-1.9c1.097-1.097 1.097-2.88 0-3.977l-1.9-1.9c-1.097-1.097-2.88-1.097-3.978 0zm4.872 2.884a1.41 1.41 0 0 1 0 1.989l-1.9 1.9a1.41 1.41 0 0 1-1.989 0l-1.9-1.9a1.41 1.41 0 0 1 0-1.989l1.9-1.9a1.41 1.41 0 0 1 1.989 0l1.9 1.9zM5.484 2h-2.67C1.262 2 0 3.262 0 4.813v2.672a2.82 2.82 0 0 0 2.813 2.813h2.672a2.82 2.82 0 0 0 2.813-2.813V4.813A2.82 2.82 0 0 0 5.484 2zM6.9 7.484A1.41 1.41 0 0 1 5.484 8.89h-2.67a1.41 1.41 0 0 1-1.406-1.406v-2.67a1.41 1.41 0 0 1 1.406-1.406h2.672a1.41 1.41 0 0 1 1.406 1.406v2.672zm-1.416 4.22h-2.67C1.262 11.703 0 12.965 0 14.516v2.672C0 18.738 1.262 20 2.813 20h2.672a2.82 2.82 0 0 0 2.813-2.812v-2.672c0-1.55-1.262-2.812-2.813-2.812zM6.9 17.187a1.41 1.41 0 0 1-1.406 1.406h-2.67a1.41 1.41 0 0 1-1.406-1.406v-2.672a1.41 1.41 0 0 1 1.406-1.406h2.672a1.41 1.41 0 0 1 1.406 1.406v2.672zm10.407-.703c-.388 0-.703.315-.703.703a1.41 1.41 0 0 1-1.406 1.406h-2.672a1.41 1.41 0 0 1-1.406-1.406v-2.672a1.41 1.41 0 0 1 1.406-1.406h2.672a1.43 1.43 0 0 1 1.3.844.7.7 0 0 0 .926.362c.356-.156.518-.57.363-.926-.448-1.025-1.46-1.687-2.578-1.687h-2.672c-1.55 0-2.812 1.262-2.812 2.813v2.672A2.82 2.82 0 0 0 12.518 20H15.2c1.548 0 2.8-1.262 2.8-2.813 0-.388-.315-.703-.703-.703z"/></svg>