<svg xmlns="http://www.w3.org/2000/svg" fill="none" viewBox="0 0 18 18"><g clip-path="url(#A)"><path d="M16.443 3.253L9.25.06a.7.7 0 0 0-.572.001L1.555 3.254a.7.7 0 0 0-.415.64v5.544c0 2.095.828 4.237 2.272 5.876.726.825 1.563 1.477 2.488 1.94.99.495 2.034.746 3.1.746 1.493 0 2.946-.483 4.202-1.398a.7.7 0 1 0-.826-1.135c-1.015.74-2.182 1.13-3.377 1.13-3.38 0-6.456-3.412-6.456-7.158V4.35l6.422-2.88 6.5 2.88V9.44c0 1.292-.37 2.6-1.074 3.782a.7.7 0 0 0 1.207.717c.83-1.4 1.27-2.954 1.27-4.5V3.895a.7.7 0 0 0-.417-.641z" fill="#979797"/></g><defs><clipPath id="A"><path fill="#fff" d="M0 0h18v18H0z"/></clipPath></defs></svg>