<svg xmlns="http://www.w3.org/2000/svg" fill="none" viewBox="0 0 16 16"><path d="M1.085 10.095A3.41 3.41 0 0 0 0 12.53a3.41 3.41 0 0 0 .998 2.472A3.41 3.41 0 0 0 3.47 16a3.41 3.41 0 0 0 2.435-1.085 3.41 3.41 0 0 0 0-4.82 3.5 3.5 0 0 0-4.82 0zm3.217 3.217c-.106.107-.23.19-.37.25s-.287.088-.437.088-.3-.03-.437-.088-.264-.142-.37-.25-.19-.23-.25-.37-.087-.287-.087-.437.03-.3.087-.437.142-.264.25-.37.23-.19.37-.25.287-.087.437-.087.3.03.437.087a1.14 1.14 0 0 1 .37.249c.107.106.19.23.25.37s.087.287.087.437-.03.3-.087.437-.142.264-.25.37zm-.807-8.765c-.3 0-.59.12-.804.333s-.333.502-.333.804.12.59.333.804.502.333.804.333c1.508 0 2.953.6 4.02 1.665s1.665 2.512 1.665 4.02c0 .3.12.59.333.804s.502.333.804.333.59-.12.804-.333.333-.502.333-.804a7.96 7.96 0 0 0-7.957-7.958zm0-4.547c-.3 0-.59.12-.804.333s-.333.502-.333.804.12.59.333.804.502.333.804.333a10.23 10.23 0 0 1 10.231 10.231c0 .3.12.59.333.804s.502.333.804.333.59-.12.804-.333.333-.502.333-.804c0-3.316-1.317-6.497-3.663-8.842S6.812 0 3.495 0z" fill="#fff"/></svg>