<svg xmlns="http://www.w3.org/2000/svg" fill="none" viewBox="0 0 18 18"><path d="M9.862 10.815a6.51 6.51 0 0 1 4.066 2.188c.255.293.7.325.992.07s.325-.698.07-.992c-.9-1.04-2.045-1.812-3.312-2.265.98-.787 1.61-1.995 1.61-3.347 0-.72-.177-1.415-.515-2.04l.65-.496c.793-.65 1.13-1.13 1.13-1.6 0-.642-.68-.966-.97-1.105-.357-.17-.84-.35-1.48-.554l-.27-.086C10.887.286 9.994 0 9.002 0 7.92 0 7.178.235 6.15.56a14.44 14.44 0 0 0-1.618.607c-.583.27-1.123.598-1.123 1.165 0 .47.338.95 1.13 1.6l.655.5.01.04C4.88 5.086 4.71 5.77 4.71 6.47c0 1.354.63 2.563 1.613 3.35-.853.306-1.653.758-2.36 1.34a7.97 7.97 0 0 0-2.728 4.512c-.12.575.024 1.165.394 1.62s.91.7 1.493.7h2.115c.388 0 .703-.315.703-.703s-.315-.703-.703-.703H3.123a.51.51 0 0 1-.402-.191.53.53 0 0 1-.108-.446c.566-2.726 2.82-4.776 5.524-5.14L6.912 15.72c-.06.24.01.493.185.668l1.406 1.406c.132.132.31.206.497.206s.365-.074.497-.206l1.406-1.406c.175-.175.245-.428.185-.668l-1.226-4.905zM5.03 2.488c.31-.15.823-.358 1.546-.587.974-.308 1.56-.495 2.426-.495.773 0 1.528.24 2.403.52l.275.087 1.264.465c-.254.25-.676.594-1.102.888-.587-.222-1.57-.497-2.84-.497-1.278 0-2.28.278-2.874.5-.423-.292-.843-.632-1.1-.884zm6.096 2.12c-.364.356-1.084.63-2.124.63-1.02 0-1.767-.273-2.148-.63.49-.16 1.23-.33 2.148-.33a6.81 6.81 0 0 1 2.124.329zm-5.01 1.86a2.89 2.89 0 0 1 .062-.595l.156.106c.7.435 1.612.665 2.667.665s1.972-.23 2.652-.67l.165-.114a2.9 2.9 0 0 1 .064.607c0 1.6-1.293 2.883-2.883 2.883S6.117 8.058 6.117 6.47zM9 16.303l-.628-.628.628-2.51.628 2.51-.628.628zm7.364.986a1.91 1.91 0 0 1-1.487.711h-2.08c-.388 0-.703-.315-.703-.703s.315-.703.703-.703h2.08c.21 0 .338-.12.396-.192a.55.55 0 0 0 .113-.461c-.08-.38.165-.753.545-.832s.752.165.83.545a1.95 1.95 0 0 1-.399 1.635z" fill="#3d3d3d"/></svg>