<svg width="20" height="20" viewBox="0 0 20 20" fill="none" xmlns="http://www.w3.org/2000/svg">
<path d="M19.9498 17.1376C19.8618 16.7152 19.4482 16.4441 19.0257 16.532C18.6032 16.6199 18.3321 17.0337 18.4201 17.4561C18.4707 17.6994 18.4104 17.9487 18.2546 18.1404C18.1644 18.2514 17.9632 18.4375 17.6297 18.4375H2.37129C2.03778 18.4375 1.83657 18.2513 1.74633 18.1404C1.59051 17.9488 1.5302 17.6994 1.58086 17.4561C2.39165 13.5617 5.82661 10.717 9.79336 10.621C9.86208 10.6237 9.9311 10.625 10.0005 10.625C10.0701 10.625 10.1394 10.6236 10.2084 10.621C13.0026 10.688 15.5852 12.1033 17.1493 14.4358C17.3895 14.7942 17.8748 14.8899 18.2332 14.6496C18.5916 14.4094 18.6873 13.9241 18.447 13.5657C17.1651 11.6538 15.3037 10.2636 13.1813 9.56504C14.4746 8.59516 15.313 7.04988 15.313 5.3125C15.313 2.3832 12.9298 0 10.0005 0C7.07114 0 4.68797 2.3832 4.68797 5.3125C4.68797 7.05094 5.52735 8.59703 6.82208 9.56684C5.63583 9.95738 4.52274 10.5651 3.54852 11.3664C1.76211 12.8358 0.520044 14.8854 0.0511764 17.1376C-0.0957768 17.8433 0.0802779 18.5682 0.534106 19.1262C0.985708 19.6815 1.65536 20 2.37129 20H17.6296C18.3456 20 19.0152 19.6815 19.4668 19.1262C19.9207 18.5682 20.0967 17.8433 19.9498 17.1376ZM6.25047 5.3125C6.25047 3.24473 7.9327 1.5625 10.0005 1.5625C12.0682 1.5625 13.7505 3.24473 13.7505 5.3125C13.7505 7.3166 12.1702 8.95856 10.1903 9.05773C10.1271 9.05656 10.0638 9.05598 10.0005 9.05598C9.93743 9.05598 9.87438 9.0566 9.81141 9.05777C7.83114 8.95898 6.25047 7.31687 6.25047 5.3125Z" fill="#929292"/>
</svg>
