<svg xmlns="http://www.w3.org/2000/svg" viewBox="0 0 24 24" fill="#1b76bc"><rect transform="rotate(114.3 7.311 15.392)" x="7.311" y="15.392" width="3.914" height="1.763" rx=".882"/><rect transform="rotate(114.3 16.911 15.392)" x="16.911" y="15.392" width="3.914" height="1.763" rx=".882"/><rect transform="rotate(114.3 10.798 18.693)" x="10.798" y="18.693" width="5.243" height="1.763" rx=".882"/><rect transform="rotate(114.3 12.406 15.136)" x="12.406" y="15.136" width="3.107" height="1.763" rx=".882"/><path d="M9.517 6.697L7.95 6.434a2.76 2.76 0 0 0-.458-.038 2.73 2.73 0 0 0-2.729 2.729 2.73 2.73 0 0 0 2.729 2.729h10.262l.124-.02a1.61 1.61 0 0 0-.035-3.186l-1.815-.24.31-1.804a3.31 3.31 0 0 0 .047-.559 3.28 3.28 0 0 0-3.281-3.281c-1.506 0-2.778 1.016-3.162 2.402l-.424 1.532zm8.63 6.88v.04H7.493C5.012 13.617 3 11.606 3 9.125s2.01-4.492 4.492-4.492c.256 0 .506.02.75.062C8.832 2.564 10.786 1 13.104 1c2.786 0 5.044 2.258 5.044 5.044l-.023.483-.05.374.248.042c1.53.32 2.677 1.677 2.677 3.3 0 1.686-1.237 3.083-2.852 3.333z" fill-rule="evenodd"/></svg>