<svg xmlns="http://www.w3.org/2000/svg" fill="none" viewBox="0 0 20 20"><g clip-path="url(#A)"><path d="M9.18 15.156v-1.953H7.227a.78.78 0 1 1 0-1.562H9.18V9.687a.78.78 0 0 1 1.563 0v1.953h1.953a.78.78 0 1 1 0 1.563h-1.953v1.953a.78.78 0 1 1-1.563 0zm4.926-10.583l-3.53-4.32A.78.78 0 0 0 10 0a.78.78 0 0 0-.576.254c-.072.08-1.786 1.957-3.53 4.32-2.408 3.264-3.63 5.774-3.63 7.46v.214C2.266 16.522 5.735 20 10 20c1.325 0 2.633-.342 3.782-.988a.78.78 0 1 0-.766-1.362 6.16 6.16 0 0 1-3.015.788 6.19 6.19 0 0 1-6.172-6.19v-.213c0-1.306 1.178-3.622 3.316-6.522C8.242 4.023 9.35 2.707 10 1.96a58.87 58.87 0 0 1 2.848 3.541c2.143 2.905 3.324 5.226 3.324 6.533v.214c0 1-.235 1.973-.697 2.86a.78.78 0 1 0 1.386.722 7.79 7.79 0 0 0 .874-3.583v-.213c0-1.686-1.22-4.197-3.63-7.46z" fill="#3d3d3d"/></g><defs><clipPath id="A"><path fill="#fff" d="M0 0h20v20H0z"/></clipPath></defs></svg>