<svg width="48" height="48" viewBox="0 0 48 48" fill="none" xmlns="http://www.w3.org/2000/svg">
<rect x="17.3518" y="28.4748" width="5.54958" height="2.5" rx="1.25" transform="rotate(114.296 17.3518 28.4748)" fill="#1B76BC"/>
<rect x="30.963" y="28.4748" width="5.54958" height="2.5" rx="1.25" transform="rotate(114.296 30.963 28.4748)" fill="#1B76BC"/>
<rect x="22.2963" y="33.1554" width="7.43428" height="2.5" rx="1.25" transform="rotate(114.296 22.2963 33.1554)" fill="#1B76BC"/>
<rect x="24.5749" y="28.112" width="4.40492" height="2.5" rx="1.25" transform="rotate(114.296 24.5749 28.112)" fill="#1B76BC"/>
<mask id="path-5-inside-1" fill="white">
<path fill-rule="evenodd" clip-rule="evenodd" d="M17.6082 25.9579C14.0906 25.9579 11.2391 23.1064 11.2391 19.5888C11.2391 16.0712 14.0906 13.2196 17.6082 13.2196C17.9706 13.2196 18.3258 13.2498 18.6716 13.308C19.508 10.2868 22.2773 8.06876 25.5647 8.06876C29.5145 8.06876 32.7164 11.2707 32.7164 15.2204C32.7164 15.6343 32.6812 16.04 32.6137 16.4346C34.9547 16.7453 36.7609 18.7494 36.7609 21.1754C36.7609 23.5657 35.0073 25.5465 32.7164 25.9013V25.958L17.6082 25.9579Z"/>
</mask>
<path d="M17.6082 25.9579L17.6082 23.4579H17.6082V25.9579ZM18.6716 13.308L18.2573 15.7734L20.4797 16.1469L21.081 13.975L18.6716 13.308ZM32.6137 16.4346L30.1495 16.0132L29.712 18.5714L32.2848 18.9129L32.6137 16.4346ZM32.7164 25.9013L32.3337 23.4308L30.2164 23.7588V25.9013H32.7164ZM32.7164 25.958L32.7164 28.458L35.2164 28.458V25.958H32.7164ZM17.6082 23.4579C15.4714 23.4579 13.7391 21.7257 13.7391 19.5888H8.73906C8.73906 24.4871 12.7099 28.4579 17.6082 28.4579V23.4579ZM13.7391 19.5888C13.7391 17.4519 15.4714 15.7196 17.6082 15.7196V10.7196C12.7099 10.7196 8.73906 14.6904 8.73906 19.5888H13.7391ZM17.6082 15.7196C17.8312 15.7196 18.0478 15.7382 18.2573 15.7734L19.086 10.8425C18.6039 10.7615 18.11 10.7196 17.6082 10.7196V15.7196ZM21.081 13.975C21.6253 12.0088 23.4301 10.5688 25.5647 10.5688V5.56876C21.1246 5.56876 17.3907 8.5648 16.2623 12.6409L21.081 13.975ZM25.5647 10.5688C28.1337 10.5688 30.2164 12.6514 30.2164 15.2204H35.2164C35.2164 9.88995 30.8952 5.56876 25.5647 5.56876V10.5688ZM30.2164 15.2204C30.2164 15.4925 30.1933 15.7572 30.1495 16.0132L35.0779 16.8561C35.1691 16.3228 35.2164 15.7761 35.2164 15.2204H30.2164ZM32.2848 18.9129C33.3996 19.0608 34.2609 20.0195 34.2609 21.1754H39.2609C39.2609 17.4793 36.5098 14.4298 32.9427 13.9563L32.2848 18.9129ZM34.2609 21.1754C34.2609 22.3139 33.4249 23.2618 32.3337 23.4308L33.099 28.3719C36.5897 27.8312 39.2609 24.8175 39.2609 21.1754H34.2609ZM30.2164 25.9013V25.958H35.2164V25.9013H30.2164ZM32.7164 23.458L17.6082 23.4579L17.6082 28.4579L32.7164 28.458L32.7164 23.458Z" fill="#1B76BC" mask="url(#path-5-inside-1)"/>
</svg>
