<svg width="48" height="49" viewBox="0 0 48 49" fill="none" xmlns="http://www.w3.org/2000/svg">
<rect x="17.3518" y="28.5998" width="5.54958" height="2.5" rx="1.25" transform="rotate(114.296 17.3518 28.5998)" fill="#1B76BC"/>
<rect x="30.963" y="28.5998" width="5.54958" height="2.5" rx="1.25" transform="rotate(114.296 30.963 28.5998)" fill="#1B76BC"/>
<rect x="22.2963" y="33.2804" width="7.43428" height="2.5" rx="1.25" transform="rotate(114.296 22.2963 33.2804)" fill="#1B76BC"/>
<rect x="24.5749" y="28.237" width="4.40492" height="2.5" rx="1.25" transform="rotate(114.296 24.5749 28.237)" fill="#1B76BC"/>
<path fill-rule="evenodd" clip-rule="evenodd" d="M20.4797 16.2719L18.2573 15.8984C18.0478 15.8632 17.8311 15.8446 17.6082 15.8446C15.4713 15.8446 13.739 17.5769 13.739 19.7138C13.739 21.8506 15.4713 23.5829 17.6082 23.5829L32.1584 23.5829L32.3337 23.5558C33.4249 23.3868 34.2609 22.4389 34.2609 21.3004C34.2609 20.1445 33.3996 19.1858 32.2847 19.0379L29.712 18.6964L30.1495 16.1382C30.1933 15.8821 30.2163 15.6174 30.2163 15.3454C30.2163 12.7764 28.1337 10.6938 25.5647 10.6938C23.4301 10.6938 21.6253 12.1338 21.081 14.1L20.4797 16.2719ZM32.7164 26.0263V26.0829L17.6082 26.0829C14.0906 26.0829 11.239 23.2314 11.239 19.7138C11.239 16.1961 14.0906 13.3446 17.6082 13.3446C17.9706 13.3446 18.3258 13.3748 18.6716 13.4329C19.508 10.4118 22.2773 8.19376 25.5647 8.19376C29.5144 8.19376 32.7163 11.3957 32.7163 15.3454C32.7163 15.5762 32.7054 15.8044 32.684 16.0296C32.6671 16.2083 32.6435 16.385 32.6137 16.5596C32.7324 16.5754 32.8498 16.5955 32.9657 16.6198C35.1333 17.0747 36.7609 18.9975 36.7609 21.3004C36.7609 23.6907 35.0073 25.6715 32.7164 26.0263Z" fill="#1B76BC"/>
</svg>
