<svg xmlns="http://www.w3.org/2000/svg" viewBox="0 0 24 24" fill="#1b76bc"><rect transform="rotate(89.312 12.728)" x="12.728" width="3.989" height="1.797" rx=".898"/><rect transform="rotate(89.312 12.728 19.99)" x="12.728" y="19.99" width="3.989" height="1.797" rx=".898"/><rect transform="rotate(149.31 22.683 6.757)" x="22.683" y="6.757" width="3.989" height="1.797" rx=".898"/><rect transform="rotate(149.31 5.372 16.752)" x="5.372" y="16.752" width="3.989" height="1.797" rx=".898"/><rect transform="rotate(209.31 21.809 18.757)" x="21.809" y="18.757" width="3.989" height="1.797" rx=".898"/><rect transform="rotate(209.31 4.497 8.762)" x="4.497" y="8.762" width="3.989" height="1.797" rx=".898"/><path d="M11.854 17.75a5.75 5.75 0 0 0 0-11.5 5.75 5.75 0 0 0 0 11.5zm0-1.797c2.183 0 3.953-1.77 3.953-3.953s-1.77-3.953-3.953-3.953S7.9 9.816 7.9 12s1.77 3.953 3.953 3.953z" fill-rule="evenodd"/></svg>