<svg xmlns="http://www.w3.org/2000/svg" fill="none" viewBox="0 0 18 18"><g clip-path="url(#A)"><path d="M10.617 0c-4.07 0-7.383 3.312-7.383 7.383a7.35 7.35 0 0 0 1.706 4.715l-4.732 4.7c-.276.274-.277.72-.003.994A.7.7 0 0 0 .703 18a.7.7 0 0 0 .495-.204l4.74-4.707a7.35 7.35 0 0 0 4.68 1.677c1.267 0 2.516-.326 3.614-.944.338-.2.46-.62.268-.957s-.62-.46-.957-.268c-.888.5-1.9.763-2.925.763-3.295 0-5.977-2.68-5.977-5.977s2.68-5.977 5.977-5.977 5.977 2.68 5.977 5.977c0 1.038-.27 2.06-.78 2.956-.192.337-.075.767.262.96s.767.075.96-.262c.632-1.108.966-2.37.966-3.653C18 3.312 14.688 0 10.617 0z" fill="#c4c4c4"/></g><defs><clipPath id="A"><path fill="#fff" d="M0 0h18v18H0z"/></clipPath></defs></svg>