<svg xmlns="http://www.w3.org/2000/svg" xmlns:xlink="http://www.w3.org/1999/xlink" viewBox="0 0 18 18"><g fill="#979797"><path d="M15.432 12.375c.388 0 .703-.315.703-.703v-8.86c0-1.55-1.262-2.812-2.813-2.812H4.678c-1.55 0-2.812 1.262-2.812 2.813v12.375c0 1.55 1.262 2.813 2.813 2.813h8.645c1.55 0 2.813-1.262 2.813-2.812 0-.388-.315-.703-.703-.703s-.703.315-.703.703a1.41 1.41 0 0 1-1.406 1.406H4.678a1.41 1.41 0 0 1-1.406-1.406V2.813a1.41 1.41 0 0 1 1.406-1.406h8.645a1.41 1.41 0 0 1 1.406 1.406v8.86c0 .388.315.703.703.703z"/><use xlink:href="#B"/><use xlink:href="#B" y="2.81"/><path d="M9.775 9.844H5.377c-.388 0-.703.315-.703.703s.315.703.703.703h4.398c.388 0 .703-.315.703-.703s-.315-.703-.703-.703z"/></g><defs ><path id="B" d="M12.62 4.22H5.377c-.388 0-.703.315-.703.703s.315.703.703.703h7.242c.388 0 .703-.315.703-.703s-.315-.703-.703-.703z"/></defs></svg>