<?xml version="1.0" encoding="UTF-8"?>
<svg viewBox="0 0 24 24" xmlns="http://www.w3.org/2000/svg">
<rect transform="rotate(89.312 12.728 0)" x="12.728" width="3.9889" height="1.797" rx=".89847" fill="#1B76BC"/>
<rect transform="rotate(89.312 12.728 19.99)" x="12.728" y="19.99" width="3.9889" height="1.797" rx=".89847" fill="#1B76BC"/>
<rect transform="rotate(149.31 22.683 6.7573)" x="22.683" y="6.7573" width="3.9889" height="1.797" rx=".89847" fill="#1B76BC"/>
<rect transform="rotate(149.31 5.3716 16.752)" x="5.3716" y="16.752" width="3.9889" height="1.797" rx=".89847" fill="#1B76BC"/>
<rect transform="rotate(209.31 21.809 18.757)" x="21.809" y="18.757" width="3.9889" height="1.797" rx=".89847" fill="#1B76BC"/>
<rect transform="rotate(209.31 4.4968 8.7622)" x="4.4968" y="8.7622" width="3.9889" height="1.797" rx=".89847" fill="#1B76BC"/>
<path d="m11.854 17.75c3.1758 0 5.7502-2.5745 5.7502-5.7503 0-3.1757-2.5744-5.7502-5.7502-5.7502-3.1758 0-5.7502 2.5745-5.7502 5.7502 0 3.1758 2.5745 5.7503 5.7502 5.7503zm1e-4 -1.797c2.1833 0 3.9532-1.77 3.9532-3.9533 0-2.1834-1.7699-3.9533-3.9532-3.9533-2.1834 0-3.9533 1.77-3.9533 3.9533 0 2.1833 1.7699 3.9533 3.9533 3.9533z" clip-rule="evenodd" fill="#1B76BC" fill-rule="evenodd"/>
</svg>
