<svg xmlns="http://www.w3.org/2000/svg" fill="none" viewBox="0 0 20 20"><g clip-path="url(#A)" fill="#3d3d3d"><path d="M15.977 4.807a.78.78 0 0 0 .546-.223l2.9-2.812A.78.78 0 1 0 18.32.656l-2.9 2.812a.78.78 0 0 0 .547 1.339zm-2.155-2.04a.76.76 0 0 0 .125.01.78.78 0 0 0 .77-.657l.195-1.2a.78.78 0 0 0-1.541-.26l-.195 1.2a.78.78 0 0 0 .647.895zm1.15 2.43l-.092-.092c-2.57-2.57-4.944-3-5.044-3.015a.78.78 0 0 0-.679.218l-.996 1-.043.046C6.736 5 6.275 6.765 6.738 8.656L.682 14.67c-.44.436-.68 1.018-.682 1.637a2.3 2.3 0 0 0 .677 1.64l1.377 1.377c.45.45 1.043.676 1.635.676a2.3 2.3 0 0 0 1.63-.67l3.633-3.63a.78.78 0 1 0-1.101-1.108l-3.63 3.626a.75.75 0 0 1-1.059-.002l-1.38-1.376c-.142-.142-.22-.33-.22-.532a.73.73 0 0 1 .22-.53l5.65-5.6 2.685 2.683c.08.07.173.12.27.15.83.342 1.64.514 2.43.514 1.372 0 2.675-.52 3.894-1.555l.046-.043 1.015-.996a.78.78 0 0 0 .218-.679c-.016-.1-.45-2.474-3.02-5.044zm-3.9 6.4L8.5 9.013c-.52-1.306-.488-2.477.1-3.607l6.07 6.07c-1.13.597-2.3.628-3.607.1zm4.87-1.055l-6.397-6.4.4-.4c.676.212 2.197.835 3.83 2.467l.092.092c1.632 1.632 2.254 3.153 2.467 3.83l-.4.4zm4.052-4.8a.78.78 0 0 0-.923-.607l-1.133.234a.78.78 0 0 0-.607.923.78.78 0 0 0 .764.623c.052 0 .106-.005.16-.016l1.133-.234a.78.78 0 0 0 .607-.923zM7.106 11.87l-1.132 1.094a.78.78 0 1 0 1.104 1.104l1.133-1.093a.78.78 0 1 0-1.105-1.105z"/></g><defs><clipPath id="A"><path fill="#fff" d="M0 0h20v20H0z"/></clipPath></defs></svg>