<svg xmlns="http://www.w3.org/2000/svg" viewBox="0 0 24 24" fill="#1b76bc"><path d="M10.375 21.374a3.5 3.5 0 0 1-3.493-3.493 3.5 3.5 0 0 1 3.493-3.493 3.5 3.5 0 0 1 3.493 3.493 3.5 3.5 0 0 1-3.493 3.493zm0-5.62a2.13 2.13 0 0 0-2.126 2.126 2.13 2.13 0 0 0 2.126 2.126 2.13 2.13 0 0 0 2.127-2.126 2.13 2.13 0 0 0-2.126-2.126zM10.376 24a6.22 6.22 0 0 1-.149-.002c-3.297-.078-5.975-2.826-5.97-6.125.003-2.184 1.145-4.162 3.007-5.26V2.76A2.76 2.76 0 0 1 10.022 0h.705c1.52 0 2.76 1.238 2.76 2.76 0 .377-.306.683-.683.683s-.683-.306-.683-.683c0-.768-.624-1.392-1.392-1.392h-.705c-.768 0-1.392.625-1.392 1.392v10.26a.68.68 0 0 1-.378.61 4.73 4.73 0 0 0-2.629 4.245 4.78 4.78 0 0 0 4.636 4.757 4.73 4.73 0 0 0 3.435-1.35 4.7 4.7 0 0 0 1.432-3.4 4.74 4.74 0 0 0-.552-2.224c-.177-.333-.05-.747.283-.924s.747-.05.924.283c.466.876.712 1.867.712 2.866a6.07 6.07 0 0 1-1.844 4.378A6.07 6.07 0 0 1 10.376 24zm-.002-10.724c-.377 0-.683-.306-.683-.683V7.078c0-.377.306-.683.683-.683s.683.306.683.683v5.514c0 .377-.306.683-.683.683zm8.686-4.168h-5.574V7.673h3.04c.377 0 .683-.306.683-.683s-.306-.683-.683-.683H12.87c-.012 0-.023.001-.034.002l-.034-.002c-.377 0-.683.306-.683.683v5.603c0 .377.306.683.683.683.012 0 .023-.001.034-.002l.034.002h3.654c.377 0 .683-.306.683-.683s-.306-.683-.683-.683h-3.04v-1.435h5.574c.377 0 .683-.306.683-.683s-.306-.683-.683-.683z"/></svg>