<svg width="48" height="49" viewBox="0 0 48 49" fill="none" xmlns="http://www.w3.org/2000/svg">
<rect x="25.2166" y="8.14172" width="5.54958" height="2.5" rx="1.25" transform="rotate(89.3117 25.2166 8.14172)" fill="#1B76BC"/>
<rect x="25.2166" y="35.9524" width="5.54958" height="2.5" rx="1.25" transform="rotate(89.3117 25.2166 35.9524)" fill="#1B76BC"/>
<rect x="39.0666" y="17.5428" width="5.54958" height="2.5" rx="1.25" transform="rotate(149.312 39.0666 17.5428)" fill="#1B76BC"/>
<rect x="14.9818" y="31.4482" width="5.54958" height="2.5" rx="1.25" transform="rotate(149.312 14.9818 31.4482)" fill="#1B76BC"/>
<rect x="37.85" y="34.2378" width="5.54958" height="2.5" rx="1.25" transform="rotate(-150.688 37.85 34.2378)" fill="#1B76BC"/>
<rect x="13.7652" y="20.3324" width="5.54958" height="2.5" rx="1.25" transform="rotate(-150.688 13.7652 20.3324)" fill="#1B76BC"/>
<path fill-rule="evenodd" clip-rule="evenodd" d="M24 32.8365C28.4183 32.8365 32 29.2547 32 24.8365C32 20.4182 28.4183 16.8365 24 16.8365C19.5817 16.8365 16 20.4182 16 24.8365C16 29.2547 19.5817 32.8365 24 32.8365ZM24 30.3365C27.0376 30.3365 29.5 27.874 29.5 24.8365C29.5 21.7989 27.0376 19.3365 24 19.3365C20.9625 19.3365 18.5 21.7989 18.5 24.8365C18.5 27.874 20.9625 30.3365 24 30.3365Z" fill="#1B76BC"/>
</svg>
