<svg xmlns="http://www.w3.org/2000/svg" fill="none" viewBox="0 0 18 18"><g clip-path="url(#A)"><path d="M17.955 15.424c-.08-.38-.45-.624-.832-.545s-.624.452-.545.832c.046.22-.01.444-.15.616-.08.1-.262.267-.563.267H2.134c-.3 0-.48-.168-.562-.267-.14-.172-.195-.397-.15-.616a7.77 7.77 0 0 1 7.391-6.151L9 9.563l.187-.004c2.515.06 4.84 1.334 6.247 3.433.216.323.653.41.976.193s.41-.653.192-.976c-1.154-1.72-2.83-2.972-4.74-3.6 1.164-.873 1.918-2.264 1.918-3.827A4.79 4.79 0 0 0 9 0a4.79 4.79 0 0 0-4.781 4.781c0 1.565.755 2.956 1.92 3.83-1.068.35-2.07.898-2.946 1.62C1.586 11.552.468 13.397.046 15.424c-.132.635.026 1.287.435 1.8A2.12 2.12 0 0 0 2.134 18h13.733a2.12 2.12 0 0 0 1.653-.786c.41-.502.567-1.155.435-1.8zM5.626 4.78a3.38 3.38 0 0 1 3.375-3.375 3.38 3.38 0 0 1 3.375 3.375 3.38 3.38 0 0 1-3.204 3.371L9 8.15l-.17.002a3.38 3.38 0 0 1-3.205-3.371z" fill="#979797"/></g><defs><clipPath id="A"><path fill="#fff" d="M0 0h18v18H0z"/></clipPath></defs></svg>