<svg xmlns="http://www.w3.org/2000/svg" viewBox="0 0 24 24" fill="#1b76bc"><rect y="7.602" width="11.25" height="1.77" rx=".885"/><rect x="16.917" y="5.234" width="3.677" height="1.778" rx=".889"/><rect y="11.961" width="20.834" height="1.77" rx=".885"/><rect y="16.319" width="14.392" height="1.77" rx=".885"/><rect x="6.775" y="3" width="4.475" height="1.77" rx=".885"/><path d="M7.547 4.777C8.067 3.724 9.152 3 10.405 3c1.76 0 3.186 1.427 3.186 3.186s-1.427 3.186-3.186 3.186c-1.25 0-2.334-.72-2.855-1.77l2.914-.001c.755-.03 1.357-.653 1.357-1.415 0-.782-.634-1.416-1.416-1.416l-.14.007h-2.72z" fill-rule="evenodd"/><rect transform="matrix(1 0 0 -1 15.315 20.445)" width="1.77" height="1.77" rx=".885"/><path d="M15.315 19.505c0-.762-.602-1.384-1.357-1.415v-.001h-2.913c.52-1.05 1.604-1.77 2.855-1.77 1.76 0 3.186 1.426 3.186 3.186h-1.77zm.985-7.545a4.24 4.24 0 0 0 3.45 1.77 4.25 4.25 0 0 0 4.248-4.248 4.25 4.25 0 0 0-4.227-4.248V7.02c1.382 0 2.488 1.106 2.488 2.47a2.47 2.47 0 0 1-2.47 2.47h-3.5z" fill-rule="evenodd"/></svg>