<svg width="48" height="48" viewBox="0 0 48 48" fill="none" xmlns="http://www.w3.org/2000/svg">
<rect x="7.05238" y="18.1814" width="15.8886" height="2.5" rx="1.25" fill="#1B76BC"/>
<rect x="30.9438" y="14.8365" width="5.19242" height="2.51134" rx="1.25567" fill="#1B76BC"/>
<rect x="7.05238" y="24.3364" width="29.4244" height="2.5" rx="1.25" fill="#1B76BC"/>
<rect x="7.05238" y="30.4914" width="20.3259" height="2.5" rx="1.25" fill="#1B76BC"/>
<rect x="16.6214" y="11.6814" width="6.31961" height="2.5" rx="1.25" fill="#1B76BC"/>
<path fill-rule="evenodd" clip-rule="evenodd" d="M17.7106 14.191C18.4451 12.7041 19.9769 11.6814 21.7476 11.6814C24.2329 11.6814 26.2476 13.6961 26.2476 16.1814C26.2476 18.6667 24.2329 20.6814 21.7476 20.6814C19.9807 20.6814 18.4517 19.6631 17.7153 18.1814H21.7476H21.831V18.1797C22.8969 18.136 23.7476 17.258 23.7476 16.1814C23.7476 15.0768 22.8521 14.1814 21.7476 14.1814C21.6811 14.1814 21.6154 14.1847 21.5506 14.191H17.7106Z" fill="#1B76BC"/>
<rect width="2.5" height="2.5" rx="1.25" transform="matrix(1 0 0 -1 28.6821 36.3186)" fill="#1B76BC"/>
<path fill-rule="evenodd" clip-rule="evenodd" d="M28.6821 34.9911C28.6819 33.9146 27.8313 33.0369 26.7655 32.9932V32.9914H22.6498C23.3862 31.5097 24.9152 30.4915 26.6821 30.4915C29.1672 30.4915 31.1819 32.506 31.1821 34.9911H28.6821Z" fill="#1B76BC"/>
<path fill-rule="evenodd" clip-rule="evenodd" d="M30.0737 24.3364C31.1628 25.8505 32.9401 26.8364 34.9476 26.8364C38.2613 26.8364 40.9476 24.1502 40.9476 20.8364C40.9476 17.5329 38.2778 14.853 34.9782 14.8365V17.3598C34.9866 17.3598 34.9949 17.3597 35.0033 17.3597C36.9299 17.3597 38.4917 18.9215 38.4917 20.8481C38.4917 22.7747 36.9299 24.3364 35.0033 24.3364C34.9949 24.3364 34.9866 24.3364 34.9782 24.3364V24.3364H30.0737Z" fill="#1B76BC"/>
</svg>
