<svg xmlns="http://www.w3.org/2000/svg" fill="none" viewBox="0 0 26 26"><g clip-path="url(#A)" fill="#f34949"><path d="M25.704 18.564c-.208-.52-.8-.775-1.32-.567s-.775.8-.567 1.32a2.17 2.17 0 0 1-.232 2.023 2.14 2.14 0 0 1-1.8.952H4.22a2.15 2.15 0 0 1-1.902-1.118c-.4-.7-.373-1.528.05-2.2l8.784-14.22c.4-.648 1.093-1.034 1.853-1.034s1.453.387 1.853 1.034l6.496 10.518c.295.477.92.625 1.398.33s.625-.92.33-1.398l-6.498-10.52a4.18 4.18 0 0 0-3.581-1.998 4.18 4.18 0 0 0-3.581 1.998L.637 17.897a4.16 4.16 0 0 0-.095 4.267 4.16 4.16 0 0 0 3.676 2.16h17.567c1.42 0 2.688-.672 3.482-1.843a4.2 4.2 0 0 0 .437-3.915zm-12.702 1.748c.56 0 1.015-.455 1.015-1.015s-.455-1.016-1.015-1.016-1.016.455-1.016 1.016.455 1.015 1.016 1.015zm1.016-4.57V8.278c0-.56-.455-1.015-1.016-1.015s-1.015.455-1.015 1.015v7.464c0 .56.455 1.016 1.015 1.016s1.016-.455 1.016-1.016z"/></g><defs><clipPath id="A"><path fill="#fff" d="M0 0h26v26H0z"/></clipPath></defs></svg>